<?xml version="1.0" encoding="utf-8"?>
<!-- Generator: Adobe Illustrator 27.8.1, SVG Export Plug-In . SVG Version: 6.00 Build 0)  -->
<svg version="1.1" id="Layer_1" xmlns="http://www.w3.org/2000/svg" xmlns:xlink="http://www.w3.org/1999/xlink" x="0px" y="0px"
	 viewBox="0 0 1563.21 581.76" style="enable-background:new 0 0 1563.21 581.76;" xml:space="preserve">
<style type="text/css">
	.st0{fill:#fff;}
	.st1{fill-rule:evenodd;clip-rule:evenodd;fill:#fff;}
	.st2{clip-path:url(#SVGID_00000096754894873073275460000014549377130480442026_);fill:#fff;}
</style>
<g>
	<g>
		<path class="st0" d="M1317.51,285.68c6.15,0,11.39-2.38,15.72-7.13c7.83-8.39,11.74-19.53,11.74-33.44
			c0-13.91-2.38-24.74-7.13-32.49c-4.75-7.76-12.51-11.64-23.27-11.64c-7.97,3.07-14.01,8.49-18.13,16.25
			c-4.12,7.76-6.18,17.12-6.18,28.09c0,10.97,2.24,20.44,6.71,28.41C1301.44,281.7,1308.29,285.68,1317.51,285.68 M1321.7,193.02
			c12.3,0,22.47,4.19,30.5,12.58c8.04,8.39,12.05,19.92,12.05,34.59c0,9.36-1.61,17.61-4.82,24.74
			c-3.21,7.13-7.41,12.65-12.58,16.56c-9.92,7.55-21,11.32-33.23,11.32s-22.36-4.19-30.4-12.58c-8.04-8.39-12.05-19.92-12.05-34.59
			c0-9.36,1.57-17.61,4.72-24.74c3.14-7.13,7.3-12.65,12.47-16.56C1298.29,196.8,1309.4,193.02,1321.7,193.02z M1230.3,166.29
			c0-3,1.01-5.56,3.04-7.65c2.03-2.1,4.54-3.14,7.55-3.14c3.01,0,5.59,1.05,7.76,3.14c2.17,2.1,3.25,4.61,3.25,7.55
			c0,2.94-1.08,5.52-3.25,7.76c-2.17,2.24-4.72,3.35-7.65,3.35c-2.93,0-5.45-1.08-7.55-3.25
			C1231.35,171.88,1230.3,169.3,1230.3,166.29z M1232.4,290.3v-94.76h17.4v94.76H1232.4z M1182.92,269.12v-58.49
			c-7.41-4.89-14.19-7.34-20.33-7.34c-8.11,0-14.6,3.81-19.5,11.43c-4.89,7.62-7.34,17.16-7.34,28.62c0,11.46,1.78,20.65,5.35,27.57
			c3.56,6.92,8,11.08,13.31,12.47c4.89-0.42,9.68-1.61,14.36-3.56c4.68-1.96,8.21-3.95,10.59-5.97
			C1181.73,271.81,1182.92,270.24,1182.92,269.12z M1200.74,262.2c0,9.64,3.56,17.33,10.69,23.06l-10.69,7.76l-17.19-15.3
			c-5.59,5.31-10.62,9.15-15.09,11.53c-4.47,2.37-9.08,3.56-13.84,3.56s-8.94-0.7-12.58-2.1c-3.63-1.4-7.44-3.74-11.43-7.02
			c-3.98-3.28-7.2-8.46-9.64-15.51c-2.45-7.06-3.67-16.18-3.67-27.36c0-11.18,3.32-21.91,9.96-32.18
			c6.64-10.27,15.76-15.41,27.36-15.41c8.67,0,18.1,3.21,28.3,9.64v-55.76h17.82V262.2z M1076.22,290.3h-17.61v-94.76h12.16
			l4.82,17.61c2.8-4.89,7.23-9.5,13.31-13.84c6.08-4.33,12.33-6.99,18.76-7.97l2.1,14.47c-5.17,0-11.01,1.61-17.5,4.82
			c-6.5,3.21-11.85,6.78-16.04,10.69V290.3z M1029.05,262.41c0,9.92,3.63,17.47,10.9,22.64l-10.9,7.97l-16.98-15.3
			c-11.04,10.06-21.24,15.09-30.61,15.09c-6.15,0-11.43-1.96-15.83-5.87c-4.4-3.91-6.6-8.84-6.6-14.78s1.78-10.87,5.35-14.78
			c3.56-3.91,8.28-6.92,14.15-9.01c10.06-3.77,21.17-6.15,33.33-7.13v-19.71c0-11.6-6.71-17.4-20.13-17.4
			c-7.69,0-16.77,1.68-27.25,5.03l-1.89-5.24c2.8-2.24,7.65-4.61,14.57-7.13c6.92-2.52,13.52-3.77,19.81-3.77
			c6.29,0,11.57,0.84,15.83,2.52c4.26,1.68,7.41,3.56,9.43,5.66c2.03,2.1,3.6,4.96,4.72,8.59c1.12,3.63,1.75,6.5,1.89,8.6
			c0.14,2.1,0.21,4.89,0.21,8.39V262.41z M1011.86,268.07v-21.59c-10.06,0.7-18.31,2.94-24.74,6.71s-9.64,7.83-9.64,12.16
			s1.12,8.07,3.35,11.22c2.24,3.14,5.1,5.35,8.59,6.6c4.61-0.84,9.5-3.14,14.67-6.92C1009.27,272.48,1011.86,269.75,1011.86,268.07z
			 M902.42,292.81c-21.66,0-39.9-5.87-54.72-17.61c-14.81-11.74-22.22-28.58-22.22-50.52c0-12.86,2.45-24.32,7.34-34.38
			c4.89-10.06,11.32-17.96,19.29-23.69c16.07-11.74,34.1-17.61,54.09-17.61c11.6,0,23.69,2.1,36.27,6.29l-2.1,14.26
			c-6.57-2.8-11.67-4.89-15.3-6.29c-10.48-3.77-21.03-5.66-31.66-5.66c-14.67,3.35-25.96,10.62-33.86,21.8
			c-7.9,11.18-11.84,25.16-11.84,41.93c0,20.54,5.38,36.37,16.14,47.48c10.76,11.11,24.95,16.67,42.56,16.67
			c17.61,0,30.75-3.77,39.41-11.32v11.53C933.8,290.44,919.33,292.81,902.42,292.81z"/>
		<path class="st0" d="M1540.8,341.16v12.41h-41.71v143.42h-28.96V353.57l-28.27-5.52v-6.89h28.61
			c1.38-24.36,7.87-44.24,19.48-59.64c11.61-15.4,27.29-23.1,47.06-23.1c6.44,0,15.17,1.38,26.2,4.14l-3.45,22.41
			c-5.06-2.76-11.55-5.17-19.48-7.24c-7.93-2.07-13.96-3.1-18.1-3.1c-7.81,3.91-13.5,12.64-17.06,26.2
			c-3.56,13.56-5.57,27.01-6.03,40.34H1540.8z M1426,341.16v12.41h-41.71v143.42h-28.96V353.57l-28.27-5.52v-6.89h28.61
			c1.38-24.36,7.87-44.24,19.48-59.64c11.61-15.4,27.29-23.1,47.06-23.1c6.44,0,15.17,1.38,26.2,4.14l-3.45,22.41
			c-5.06-2.76-11.55-5.17-19.48-7.24c-7.93-2.07-13.96-3.1-18.1-3.1c-7.81,3.91-13.5,12.64-17.06,26.2
			c-3.56,13.56-5.57,27.01-6.03,40.34H1426z M1293.27,451.13c0,16.32,5.98,28.73,17.93,37.23l-17.93,13.1l-27.92-25.17
			c-18.16,16.55-34.93,24.82-50.33,24.82c-10.11,0-18.79-3.22-26.03-9.65c-7.24-6.43-10.86-14.54-10.86-24.3
			c0-9.77,2.93-17.87,8.79-24.3c5.86-6.44,13.62-11.38,23.27-14.82c16.55-6.21,34.82-10.11,54.82-11.72v-32.41
			c0-19.08-11.03-28.61-33.1-28.61c-12.64,0-27.58,2.76-44.82,8.27l-3.1-8.62c4.6-3.68,12.58-7.58,23.96-11.72
			c11.38-4.14,22.24-6.21,32.58-6.21c10.34,0,19.02,1.38,26.03,4.14c7.01,2.76,12.18,5.86,15.51,9.31
			c3.33,3.45,5.92,8.16,7.76,14.14c1.84,5.98,2.87,10.69,3.1,14.13c0.23,3.45,0.34,8.04,0.34,13.79V451.13z M1265,460.44v-35.51
			c-16.55,1.15-30.11,4.83-40.68,11.03c-10.57,6.21-15.86,12.87-15.86,20c0,7.12,1.84,13.27,5.52,18.44
			c3.68,5.17,8.39,8.79,14.13,10.86c7.58-1.38,15.63-5.17,24.13-11.38C1260.75,467.68,1265,463.2,1265,460.44z M1108.14,496.99
			h-28.96V341.16h20l7.93,28.96c4.6-8.04,11.89-15.63,21.89-22.75c10-7.12,20.28-11.49,30.86-13.1l3.45,23.79
			c-8.5,0-18.1,2.64-28.79,7.93c-10.69,5.29-19.48,11.15-26.37,17.58V496.99z M998.51,496.99h-28.96V341.16h20l7.93,28.96
			c4.6-8.04,11.89-15.63,21.89-22.75c10-7.12,20.28-11.49,30.86-13.1l3.45,23.79c-8.5,0-18.1,2.64-28.79,7.93
			c-10.69,5.29-19.48,11.15-26.37,17.58V496.99z M920.94,451.13c0,16.32,5.98,28.73,17.93,37.23l-17.93,13.1l-27.92-25.17
			c-18.16,16.55-34.93,24.82-50.33,24.82c-10.11,0-18.79-3.22-26.03-9.65c-7.24-6.43-10.86-14.54-10.86-24.3
			c0-9.77,2.93-17.87,8.79-24.3c5.86-6.44,13.62-11.38,23.27-14.82c16.55-6.21,34.82-10.11,54.82-11.72v-32.41
			c0-19.08-11.03-28.61-33.1-28.61c-12.64,0-27.58,2.76-44.82,8.27l-3.1-8.62c4.6-3.68,12.58-7.58,23.96-11.72
			c11.38-4.14,22.24-6.21,32.58-6.21c10.34,0,19.02,1.38,26.03,4.14c7.01,2.76,12.18,5.86,15.51,9.31
			c3.33,3.45,5.92,8.16,7.76,14.14c1.84,5.98,2.87,10.69,3.1,14.13c0.23,3.45,0.34,8.04,0.34,13.79V451.13z M892.67,460.44v-35.51
			c-16.55,1.15-30.11,4.83-40.68,11.03c-10.57,6.21-15.86,12.87-15.86,20c0,7.12,1.84,13.27,5.52,18.44
			c3.68,5.17,8.39,8.79,14.13,10.86c7.58-1.38,15.63-5.17,24.13-11.38C888.42,467.68,892.67,463.2,892.67,460.44z M658.59,308.41
			c0,10.11,3.96,19.48,11.89,28.1c7.93,8.62,17.58,16.2,28.96,22.75c11.38,6.55,22.7,13.22,33.96,20
			c11.26,6.78,20.86,15.11,28.79,24.99c7.93,9.88,11.89,20.8,11.89,32.75c0,18.85-6.95,34.25-20.86,46.2
			c-13.91,11.95-32.69,17.93-56.37,17.93c-23.67,0-47.12-4.48-70.33-13.45v-16.2c23.44,11.72,43.38,17.58,59.81,17.58
			c16.43,0,29.25-4.02,38.44-12.07c9.19-8.04,13.79-19.19,13.79-33.44c0-9.65-3.79-18.44-11.38-26.37
			c-7.58-7.93-16.78-14.82-27.58-20.68c-10.8-5.86-21.6-11.89-32.41-18.1c-10.8-6.21-20-14.08-27.58-23.62
			c-7.58-9.54-11.38-21.09-11.38-34.65c0-13.56,6.03-26.2,18.1-37.92c12.07-11.72,30.05-17.58,53.95-17.58
			c15.63,0,35.39,3.56,59.3,10.69l-3.45,23.44c-31.03-13.33-57.57-20-79.64-20C664.56,284.51,658.59,294.39,658.59,308.41z"/>
	</g>
	<g>
		<path class="st1" d="M16.58,196.87l25.45,5.53c31.99-65.81,106.35-100.62,181.45-92.09c34.68,3.94,60.69,21.45,91.45,22.06
			c17.73-18.05,33.43-67.35,42-94.08c15,13.47,27.52,43.67,34.37,65.55c49.91-6.81,88.48-16.21,121.31,17.27
			c10.72-5.63,11.43-9.2,24.53-14.81c17.1,59.12,5.1,69.44-5.63,122.76c46.18-22.44,28.77-130.01,30.04-186.37
			c-14.98,16-26.79,42.46-44.36,55.27C471.33,76.1,466.5,74.26,405.21,81.62L361.96,0c-26.35,25.33-38.26,64.89-50.4,103.24
			c-33.23-17.8-45.41-32.89-99.7-32.03C135.62,72.44,51.77,116.54,16.58,196.87"/>
		<g>
			<defs>
				<path id="SVGID_1_" d="M73.56,440.42l14.92-20.95C52.05,372.1,20.24,310.08,27.23,253.45c2.3-18.69,7.39-35.8,14.9-51.23
					l-25.43-5.59c-7.76,17.71-13.08,37.2-15.5,58.35C-8.15,336.5,39.64,396.21,73.56,440.42"/>
			</defs>
			<use xlink:href="#SVGID_1_"  style="overflow:visible;fill-rule:evenodd;clip-rule:evenodd;fill:#fff;"/>
			<clipPath id="SVGID_00000134215982453961881560000010992685528469377469_">
				<use xlink:href="#SVGID_1_"  style="overflow:visible;"/>
			</clipPath>
			
				<rect x="-8.15" y="196.63" style="clip-path:url(#SVGID_00000134215982453961881560000010992685528469377469_);fill:#fff;" width="96.63" height="243.79"/>
		</g>
		<path class="st1" d="M73.25,440.02l15.05-20.78c17.65,22.95,36.42,42.42,52.42,56.12c114.99,98.39,116.6,114.56,207.47,46.1
			c31.6-23.8,85.72-83.75,109.33-115.75c30.18-40.91,58.4-127.84,1.93-161.11c-41.13-24.24-93.95-22.58-139.09,1.02
			c-4.87,2.55-8.67,4.88-11.61,7.56c27.39,39.19,51.71,86.34,61.14,120.34l-15.72-21.31c-34.21-51.62-119.92-188.88-193.98-165.62
			c-16.64,5.23-14.74,20.31-40.05,25.86c-17.39,3.81-44.68,1.31-63.62,0.43l2.26,18.73l16.79-6.58
			c-6.12,10.58-18.28,19.11-7.04,38.31c5.8,9.9,21.53,12.55,35.58,16.32c30.19,8.09,53.81,16.93,74.66,31.04
			c20.89-26.8,8.58-67.38,7.1-98.77c2.5,12.1,9.17,23.32,11.73,40.56c5.62,37.86-27.09,118.47,1.33,131.03
			c25.27,1.65,57.18-26,60.56-46.16c5.02-29.9-12.32-62.23-17.01-88.46c16.3,16.91,46.55,87.38,31.94,117.95
			c-6.74,14.09-27.4,26.09-46.25,34.56c-71.45,32.15-46.08-47.07-67.67-74.3c-12.28-15.49-21.33-23.7-44.45-33.36
			c-16.98-7.1-47.63-13.69-55.41-25.33c-10.04-15.03-11.26-46.08-11.76-66.35c19.59,1.6,49.56,7.62,69.01,2.88
			c22.21-5.41,16.5-26.49,36.76-35.72c36.17-16.48,83.72,12.28,103.96,27.93c10.95,8.47,22.67,20.7,34.27,35.11
			c5.48-5.46,9.69-13.3,31.67-28.43c124.09-85.43,268.48,52.58,189.62,174.42c-37.15,57.4-141.73,155.44-207.51,189.54
			c-42.36,21.96-53.83,16.44-92.27-5.59c-27.72-15.89-56.18-39.02-77.16-56.62c-9.93-8.33-23.47-23.56-32.25-32.48
			C95.08,463.03,82.02,451.45,73.25,440.02"/>
	</g>
</g>
</svg>
