<?xml version="1.0" encoding="UTF-8"?>
<svg id="Layer_1" xmlns="http://www.w3.org/2000/svg" xmlns:xlink="http://www.w3.org/1999/xlink" version="1.1" viewBox="0 0 4032 4032">
  <!-- Generator: Adobe Illustrator 30.1.0, SVG Export Plug-In . SVG Version: 2.1.1 Build 136)  -->
  <defs>
    <style>
      .st0, .st1 {
        fill: #644979;
      }

      .st2 {
        fill: #fff;
      }

      .st1 {
        fill-rule: evenodd;
      }

      .st3 {
        clip-path: url(#clippath);
      }
    </style>
    <clipPath id="clippath">
      <path class="st0" d="M936.3,2893.9l77.3-108.6c-188.8-245.5-353.7-566.9-317.4-860.5,11.9-96.9,38.3-185.5,77.2-265.5l-131.8-29c-40.2,91.8-67.8,192.8-80.3,302.4-48.5,422.5,199.2,732,375,961.1Z"/>
    </clipPath>
  </defs>
  <circle class="st2" cx="2016" cy="2016" r="2016"/>
  <g>
    <path class="st1" d="M641,1631.6l131.9,28.7c165.8-341.1,551.2-521.5,940.4-477.3,179.7,20.4,314.5,111.2,474,114.3,91.9-93.5,173.3-349.1,217.7-487.6,77.7,69.8,142.6,226.3,178.1,339.7,258.7-35.3,458.6-84,628.7,89.5,55.6-29.2,59.2-47.7,127.1-76.8,88.6,306.4,26.4,359.9-29.2,636.2,239.3-116.3,149.1-673.8,155.7-965.9-77.6,82.9-138.8,220.1-229.9,286.5-237.7-113.3-262.7-122.8-580.4-84.7l-224.2-423c-136.6,131.3-198.3,336.3-261.2,535.1-172.2-92.3-235.4-170.5-516.7-166-395.1,6.4-829.7,234.9-1012.1,651.3"/>
    <g>
      <path id="SVGID" class="st1" d="M936.3,2893.9l77.3-108.6c-188.8-245.5-353.7-566.9-317.4-860.5,11.9-96.9,38.3-185.5,77.2-265.5l-131.8-29c-40.2,91.8-67.8,192.8-80.3,302.4-48.5,422.5,199.2,732,375,961.1"/>
      <g>
        <path class="st0" d="M936.3,2893.9l77.3-108.6c-188.8-245.5-353.7-566.9-317.4-860.5,11.9-96.9,38.3-185.5,77.2-265.5l-131.8-29c-40.2,91.8-67.8,192.8-80.3,302.4-48.5,422.5,199.2,732,375,961.1Z"/>
        <g class="st3">
          <rect class="st0" x="512.9" y="1630.4" width="500.8" height="1263.5"/>
        </g>
      </g>
    </g>
    <path class="st1" d="M934.7,2891.8l78-107.7c91.5,118.9,188.8,219.9,271.7,290.9,596,509.9,604.3,593.7,1075.3,238.9,163.8-123.4,444.3-434.1,566.6-599.9,156.4-212,302.7-662.6,10-835-213.2-125.6-486.9-117-720.9,5.3-25.2,13.2-44.9,25.3-60.2,39.2,142,203.1,268,447.5,316.9,623.7l-81.5-110.4c-177.3-267.5-621.5-978.9-1005.4-858.4-86.2,27.1-76.4,105.3-207.6,134-90.1,19.7-231.6,6.8-329.7,2.2l11.7,97.1,87-34.1c-31.7,54.8-94.7,99-36.5,198.6,30.1,51.3,111.6,65,184.4,84.6,156.5,41.9,278.9,87.7,386.9,160.9,108.3-138.9,44.5-349.2,36.8-511.9,13,62.7,47.5,120.9,60.8,210.2,29.1,196.2-140.4,614,6.9,679.1,131,8.6,296.4-134.8,313.9-239.2,26-155-63.9-322.5-88.2-458.5,84.5,87.6,241.3,452.9,165.5,611.3-34.9,73-142,135.2-239.7,179.1-370.3,166.6-238.8-244-350.7-385.1-63.6-80.3-110.5-122.8-230.4-172.9-88-36.8-246.9-71-287.2-131.3-52-77.9-58.4-238.8-60.9-343.9,101.5,8.3,256.9,39.5,357.7,14.9,115.1-28,85.5-137.3,190.5-185.1,187.5-85.4,433.9,63.6,538.8,144.8,56.8,43.9,117.5,107.3,177.6,182,28.4-28.3,50.2-68.9,164.1-147.3,643.1-442.8,1391.5,272.5,982.8,904-192.5,297.5-734.6,805.6-1075.5,982.4-219.5,113.8-279,85.2-478.2-29-143.7-82.4-291.2-202.2-399.9-293.5-51.5-43.2-121.6-122.1-167.1-168.3-51.3-52.2-119-112.3-164.5-171.5"/>
  </g>
</svg>