<?xml version="1.0" encoding="UTF-8"?>
<svg id="Layer_1" xmlns="http://www.w3.org/2000/svg" xmlns:xlink="http://www.w3.org/1999/xlink" version="1.1" viewBox="0 0 1563.2 581.8">
  <!-- Generator: Adobe Illustrator 30.1.0, SVG Export Plug-In . SVG Version: 2.1.1 Build 136)  -->
  <defs>
    <style>
      .st0 {
        fill-rule: evenodd;
      }

      .st0, .st1 {
        fill: #5c4373;
      }

      .st2 {
        clip-path: url(#clippath);
      }
    </style>
    <clipPath id="clippath">
      <path class="st1" d="M73.6,440.4l14.9-21c-36.4-47.4-68.2-109.4-61.2-166,2.3-18.7,7.4-35.8,14.9-51.2l-25.4-5.6c-7.8,17.7-13.1,37.2-15.5,58.3-9.3,81.5,38.4,141.2,72.4,185.4Z"/>
    </clipPath>
  </defs>
  <g>
    <path class="st1" d="M1317.5,285.7c6.2,0,11.4-2.4,15.7-7.1,7.8-8.4,11.7-19.5,11.7-33.4s-2.4-24.7-7.1-32.5c-4.8-7.8-12.5-11.6-23.3-11.6-8,3.1-14,8.5-18.1,16.2s-6.2,17.1-6.2,28.1,2.2,20.4,6.7,28.4c4.5,8,11.3,12,20.5,12M1321.7,193c12.3,0,22.5,4.2,30.5,12.6,8,8.4,12.1,19.9,12.1,34.6s-1.6,17.6-4.8,24.7-7.4,12.6-12.6,16.6c-9.9,7.5-21,11.3-33.2,11.3s-22.4-4.2-30.4-12.6c-8-8.4-12.1-19.9-12.1-34.6s1.6-17.6,4.7-24.7c3.1-7.1,7.3-12.6,12.5-16.6,9.9-7.5,21-11.3,33.3-11.3ZM1230.3,166.3c0-3,1-5.6,3-7.6,2-2.1,4.5-3.1,7.6-3.1s5.6,1.1,7.8,3.1c2.2,2.1,3.2,4.6,3.2,7.6s-1.1,5.5-3.2,7.8c-2.2,2.2-4.7,3.4-7.7,3.4s-5.4-1.1-7.6-3.2-3.2-4.8-3.2-7.8ZM1232.4,290.3v-94.8h17.4v94.8h-17.4ZM1182.9,269.1v-58.5c-7.4-4.9-14.2-7.3-20.3-7.3s-14.6,3.8-19.5,11.4c-4.9,7.6-7.3,17.2-7.3,28.6s1.8,20.6,5.3,27.6c3.6,6.9,8,11.1,13.3,12.5,4.9-.4,9.7-1.6,14.4-3.6,4.7-2,8.2-4,10.6-6,2.4-2,3.6-3.6,3.6-4.7ZM1200.7,262.2c0,9.6,3.6,17.3,10.7,23.1l-10.7,7.8-17.2-15.3c-5.6,5.3-10.6,9.1-15.1,11.5-4.5,2.4-9.1,3.6-13.8,3.6s-8.9-.7-12.6-2.1c-3.6-1.4-7.4-3.7-11.4-7-4-3.3-7.2-8.5-9.6-15.5-2.4-7.1-3.7-16.2-3.7-27.4s3.3-21.9,10-32.2,15.8-15.4,27.4-15.4,18.1,3.2,28.3,9.6v-55.8h17.8v115.1ZM1076.2,290.3h-17.6v-94.8h12.2l4.8,17.6c2.8-4.9,7.2-9.5,13.3-13.8,6.1-4.3,12.3-7,18.8-8l2.1,14.5c-5.2,0-11,1.6-17.5,4.8-6.5,3.2-11.8,6.8-16,10.7v69ZM1029.1,262.4c0,9.9,3.6,17.5,10.9,22.6l-10.9,8-17-15.3c-11,10.1-21.2,15.1-30.6,15.1s-11.4-2-15.8-5.9-6.6-8.8-6.6-14.8,1.8-10.9,5.3-14.8c3.6-3.9,8.3-6.9,14.2-9,10.1-3.8,21.2-6.1,33.3-7.1v-19.7c0-11.6-6.7-17.4-20.1-17.4s-16.8,1.7-27.2,5l-1.9-5.2c2.8-2.2,7.7-4.6,14.6-7.1s13.5-3.8,19.8-3.8,11.6.8,15.8,2.5c4.3,1.7,7.4,3.6,9.4,5.7,2,2.1,3.6,5,4.7,8.6,1.1,3.6,1.8,6.5,1.9,8.6s.2,4.9.2,8.4v35.6ZM1011.9,268.1v-21.6c-10.1.7-18.3,2.9-24.7,6.7s-9.6,7.8-9.6,12.2,1.1,8.1,3.3,11.2c2.2,3.1,5.1,5.4,8.6,6.6,4.6-.8,9.5-3.1,14.7-6.9,5.2-3.8,7.8-6.5,7.8-8.2ZM902.4,292.8c-21.7,0-39.9-5.9-54.7-17.6-14.8-11.7-22.2-28.6-22.2-50.5s2.5-24.3,7.3-34.4c4.9-10.1,11.3-18,19.3-23.7,16.1-11.7,34.1-17.6,54.1-17.6s23.7,2.1,36.3,6.3l-2.1,14.3c-6.6-2.8-11.7-4.9-15.3-6.3-10.5-3.8-21-5.7-31.7-5.7-14.7,3.4-26,10.6-33.9,21.8-7.9,11.2-11.8,25.2-11.8,41.9s5.4,36.4,16.1,47.5c10.8,11.1,25,16.7,42.6,16.7s30.8-3.8,39.4-11.3v11.5c-12,4.8-26.5,7.1-43.4,7.1Z"/>
    <path class="st1" d="M1540.8,341.2v12.4h-41.7v143.4h-29v-143.4l-28.3-5.5v-6.9h28.6c1.4-24.4,7.9-44.2,19.5-59.6s27.3-23.1,47.1-23.1,15.2,1.4,26.2,4.1l-3.4,22.4c-5.1-2.8-11.6-5.2-19.5-7.2-7.9-2.1-14-3.1-18.1-3.1-7.8,3.9-13.5,12.6-17.1,26.2s-5.6,27-6,40.3h41.7ZM1426,341.2v12.4h-41.7v143.4h-29v-143.4l-28.3-5.5v-6.9h28.6c1.4-24.4,7.9-44.2,19.5-59.6s27.3-23.1,47.1-23.1,15.2,1.4,26.2,4.1l-3.4,22.4c-5.1-2.8-11.6-5.2-19.5-7.2-7.9-2.1-14-3.1-18.1-3.1-7.8,3.9-13.5,12.6-17.1,26.2s-5.6,27-6,40.3h41.7ZM1293.3,451.1c0,16.3,6,28.7,17.9,37.2l-17.9,13.1-27.9-25.2c-18.2,16.5-34.9,24.8-50.3,24.8s-18.8-3.2-26-9.6-10.9-14.5-10.9-24.3,2.9-17.9,8.8-24.3c5.9-6.4,13.6-11.4,23.3-14.8,16.6-6.2,34.8-10.1,54.8-11.7v-32.4c0-19.1-11-28.6-33.1-28.6s-27.6,2.8-44.8,8.3l-3.1-8.6c4.6-3.7,12.6-7.6,24-11.7s22.2-6.2,32.6-6.2,19,1.4,26,4.1,12.2,5.9,15.5,9.3,5.9,8.2,7.8,14.1,2.9,10.7,3.1,14.1c.2,3.5.3,8,.3,13.8v58.6ZM1265,460.4v-35.5c-16.6,1.1-30.1,4.8-40.7,11-10.6,6.2-15.9,12.9-15.9,20s1.8,13.3,5.5,18.4,8.4,8.8,14.1,10.9c7.6-1.4,15.6-5.2,24.1-11.4,8.5-6.2,12.8-10.7,12.8-13.4ZM1108.1,497h-29v-155.8h20l7.9,29c4.6-8,11.9-15.6,21.9-22.8s20.3-11.5,30.9-13.1l3.4,23.8c-8.5,0-18.1,2.6-28.8,7.9-10.7,5.3-19.5,11.1-26.4,17.6v113.4h0ZM998.5,497h-29v-155.8h20l7.9,29c4.6-8,11.9-15.6,21.9-22.8s20.3-11.5,30.9-13.1l3.4,23.8c-8.5,0-18.1,2.6-28.8,7.9-10.7,5.3-19.5,11.1-26.4,17.6v113.4h0ZM920.9,451.1c0,16.3,6,28.7,17.9,37.2l-17.9,13.1-27.9-25.2c-18.2,16.5-34.9,24.8-50.3,24.8s-18.8-3.2-26-9.6c-7.2-6.4-10.9-14.5-10.9-24.3s2.9-17.9,8.8-24.3c5.9-6.4,13.6-11.4,23.3-14.8,16.5-6.2,34.8-10.1,54.8-11.7v-32.4c0-19.1-11-28.6-33.1-28.6s-27.6,2.8-44.8,8.3l-3.1-8.6c4.6-3.7,12.6-7.6,24-11.7s22.2-6.2,32.6-6.2,19,1.4,26,4.1,12.2,5.9,15.5,9.3,5.9,8.2,7.8,14.1,2.9,10.7,3.1,14.1c.2,3.5.3,8,.3,13.8v58.6h0ZM892.7,460.4v-35.5c-16.5,1.1-30.1,4.8-40.7,11-10.6,6.2-15.9,12.9-15.9,20s1.8,13.3,5.5,18.4,8.4,8.8,14.1,10.9c7.6-1.4,15.6-5.2,24.1-11.4,8.5-6.2,12.8-10.7,12.8-13.4ZM658.6,308.4c0,10.1,4,19.5,11.9,28.1s17.6,16.2,29,22.8,22.7,13.2,34,20,20.9,15.1,28.8,25,11.9,20.8,11.9,32.8c0,18.9-7,34.2-20.9,46.2s-32.7,17.9-56.4,17.9-47.1-4.5-70.3-13.5v-16.2c23.4,11.7,43.4,17.6,59.8,17.6s29.2-4,38.4-12.1c9.2-8,13.8-19.2,13.8-33.4s-3.8-18.4-11.4-26.4c-7.6-7.9-16.8-14.8-27.6-20.7s-21.6-11.9-32.4-18.1c-10.8-6.2-20-14.1-27.6-23.6s-11.4-21.1-11.4-34.6,6-26.2,18.1-37.9c12.1-11.7,30-17.6,54-17.6s35.4,3.6,59.3,10.7l-3.5,23.4c-31-13.3-57.6-20-79.6-20-11.9,5.8-17.9,15.6-17.9,29.7Z"/>
  </g>
  <g>
    <path class="st0" d="M16.6,196.9l25.4,5.5c32-65.8,106.4-100.6,181.4-92.1,34.7,3.9,60.7,21.4,91.4,22.1,17.7-18.1,33.4-67.3,42-94.1,15,13.5,27.5,43.7,34.4,65.6,49.9-6.8,88.5-16.2,121.3,17.3,10.7-5.6,11.4-9.2,24.5-14.8,17.1,59.1,5.1,69.4-5.6,122.8,46.2-22.4,28.8-130,30-186.4-15,16-26.8,42.5-44.4,55.3-45.9-21.9-50.7-23.7-112-16.3L362,0c-26.4,25.3-38.3,64.9-50.4,103.2-33.2-17.8-45.4-32.9-99.7-32-76.2,1.2-160.1,45.3-195.3,125.7"/>
    <g>
      <path id="SVGID" class="st0" d="M73.6,440.4l14.9-21c-36.4-47.4-68.2-109.4-61.2-166,2.3-18.7,7.4-35.8,14.9-51.2l-25.4-5.6c-7.8,17.7-13.1,37.2-15.5,58.4-9.3,81.5,38.4,141.2,72.4,185.4"/>
      <g>
        <path class="st1" d="M73.6,440.4l14.9-21c-36.4-47.4-68.2-109.4-61.2-166,2.3-18.7,7.4-35.8,14.9-51.2l-25.4-5.6c-7.8,17.7-13.1,37.2-15.5,58.3-9.3,81.5,38.4,141.2,72.4,185.4Z"/>
        <g class="st2">
          <rect class="st1" x="-8.1" y="196.6" width="96.6" height="243.8"/>
        </g>
      </g>
    </g>
    <path class="st0" d="M73.2,440l15.1-20.8c17.7,23,36.4,42.4,52.4,56.1,115,98.4,116.6,114.6,207.5,46.1,31.6-23.8,85.7-83.8,109.3-115.8,30.2-40.9,58.4-127.8,1.9-161.1-41.1-24.2-94-22.6-139.1,1-4.9,2.6-8.7,4.9-11.6,7.6,27.4,39.2,51.7,86.3,61.1,120.3l-15.7-21.3c-34.2-51.6-119.9-188.9-194-165.6-16.6,5.2-14.7,20.3-40.1,25.9-17.4,3.8-44.7,1.3-63.6.4l2.3,18.7,16.8-6.6c-6.1,10.6-18.3,19.1-7,38.3,5.8,9.9,21.5,12.5,35.6,16.3,30.2,8.1,53.8,16.9,74.7,31,20.9-26.8,8.6-67.4,7.1-98.8,2.5,12.1,9.2,23.3,11.7,40.6,5.6,37.9-27.1,118.5,1.3,131,25.3,1.6,57.2-26,60.6-46.2,5-29.9-12.3-62.2-17-88.5,16.3,16.9,46.6,87.4,31.9,117.9-6.7,14.1-27.4,26.1-46.2,34.6-71.4,32.1-46.1-47.1-67.7-74.3-12.3-15.5-21.3-23.7-44.4-33.4-17-7.1-47.6-13.7-55.4-25.3-10-15-11.3-46.1-11.8-66.4,19.6,1.6,49.6,7.6,69,2.9,22.2-5.4,16.5-26.5,36.8-35.7,36.2-16.5,83.7,12.3,104,27.9,11,8.5,22.7,20.7,34.3,35.1,5.5-5.5,9.7-13.3,31.7-28.4,124.1-85.4,268.5,52.6,189.6,174.4-37.1,57.4-141.7,155.4-207.5,189.5-42.4,22-53.8,16.4-92.3-5.6-27.7-15.9-56.2-39-77.2-56.6-9.9-8.3-23.5-23.6-32.2-32.5-9.9-10.1-23-21.7-31.7-33.1"/>
  </g>
</svg>