<?xml version="1.0" encoding="UTF-8"?>
<svg xmlns="http://www.w3.org/2000/svg" xmlns:xlink="http://www.w3.org/1999/xlink" version="1.1" viewBox="0 0 1930.2 402.5">
  <!-- Generator: Adobe Illustrator 30.1.0, SVG Export Plug-In . SVG Version: 2.1.1 Build 136)  -->
  <defs>
    <style>
      .st0 {
        fill: none;
      }

      .st1 {
        fill: url(#linear-gradient8);
        opacity: .8;
      }

      .st1, .st2, .st3 {
        mix-blend-mode: color-dodge;
      }

      .st4 {
        fill: url(#linear-gradient3);
      }

      .st5 {
        fill: url(#linear-gradient6);
      }

      .st6 {
        fill: url(#linear-gradient5);
      }

      .st7 {
        fill: url(#linear-gradient2);
        opacity: .7;
      }

      .st8 {
        fill: url(#linear-gradient11);
      }

      .st9 {
        fill: url(#linear-gradient);
      }

      .st10 {
        isolation: isolate;
      }

      .st11 {
        fill: url(#linear-gradient13);
        opacity: .4;
      }

      .st11, .st12, .st13, .st14, .st15 {
        mix-blend-mode: multiply;
      }

      .st12 {
        fill: url(#linear-gradient4);
        opacity: .5;
      }

      .st13 {
        fill: url(#linear-gradient9);
      }

      .st13, .st14, .st15 {
        opacity: .3;
      }

      .st14 {
        fill: url(#linear-gradient7);
      }

      .st15 {
        fill: url(#linear-gradient1);
      }

      .st2 {
        fill: url(#linear-gradient12);
      }

      .st2, .st3 {
        opacity: .6;
      }

      .st3 {
        fill: url(#linear-gradient10);
      }

      .st16 {
        clip-path: url(#clippath);
      }
    </style>
    <clipPath id="clippath">
      <rect class="st0" width="1930.2" height="402.5"/>
    </clipPath>
    <linearGradient id="linear-gradient" x1="-310.4" y1="484.1" x2="288.7" y2="-33.8" gradientUnits="userSpaceOnUse">
      <stop offset="0" stop-color="#644175"/>
      <stop offset="1" stop-color="#644175"/>
    </linearGradient>
    <linearGradient id="linear-gradient1" x1="-216.3" y1="493.2" x2="334.1" y2="17.3" gradientUnits="userSpaceOnUse">
      <stop offset="0" stop-color="#644175"/>
      <stop offset=".2" stop-color="#5a3b6c"/>
      <stop offset=".5" stop-color="#412d54"/>
      <stop offset=".8" stop-color="#18172d"/>
      <stop offset="1" stop-color="#000a16"/>
    </linearGradient>
    <linearGradient id="linear-gradient2" x1="-16.9" y1="3227.2" x2="1215.6" y2="3227.2" gradientTransform="translate(1929.5 3490.4) rotate(-180)" gradientUnits="userSpaceOnUse">
      <stop offset="0" stop-color="#644175"/>
      <stop offset="1" stop-color="#644175"/>
    </linearGradient>
    <linearGradient id="linear-gradient3" y1="3296.9" x2="2426.6" y2="3296.9" xlink:href="#linear-gradient2"/>
    <linearGradient id="linear-gradient4" x1="-16.9" y1="3296.3" x2="2426.6" y2="3296.3" gradientTransform="translate(1929.5 3490.4) rotate(-180)" xlink:href="#linear-gradient"/>
    <linearGradient id="linear-gradient5" y1="3340.9" x2="1068.6" y2="3340.9" xlink:href="#linear-gradient2"/>
    <linearGradient id="linear-gradient6" x1="-16.9" y1="3390.2" x2="470.7" y2="3390.2" gradientTransform="translate(1929.5 3490.4) rotate(-180)" xlink:href="#linear-gradient"/>
    <linearGradient id="linear-gradient7" x1="1472.1" y1="3277.3" x2="2426.6" y2="3277.3" gradientTransform="translate(1929.5 3490.4) rotate(-180)" xlink:href="#linear-gradient1"/>
    <linearGradient id="linear-gradient8" x1="1472.1" y1="3296.3" x2="2426.6" y2="3296.3" gradientTransform="translate(1929.5 3490.4) rotate(-180)" xlink:href="#linear-gradient1"/>
    <linearGradient id="linear-gradient9" x1="-16.9" y1="3256.9" x2="736" y2="3256.9" gradientTransform="translate(1929.5 3490.4) rotate(-180)" gradientUnits="userSpaceOnUse">
      <stop offset="0" stop-color="#000a16"/>
      <stop offset=".3" stop-color="#1d1931"/>
      <stop offset="1" stop-color="#644175"/>
    </linearGradient>
    <linearGradient id="linear-gradient10" y1="3244.2" x2="754.2" y2="3244.2" xlink:href="#linear-gradient2"/>
    <linearGradient id="linear-gradient11" x1="-71" y1="457.3" x2="385.6" y2="62.6" xlink:href="#linear-gradient"/>
    <linearGradient id="linear-gradient12" x1="-2.7" y1="436.3" x2="406.6" y2="82.5" gradientTransform="matrix(1,0,0,1,0,0)" xlink:href="#linear-gradient2"/>
    <linearGradient id="linear-gradient13" x1="-497.1" y1="127.9" x2="409" y2="127.9" gradientUnits="userSpaceOnUse">
      <stop offset="0" stop-color="#000a16"/>
      <stop offset=".2" stop-color="#18172d"/>
      <stop offset=".5" stop-color="#412d54"/>
      <stop offset=".8" stop-color="#5a3b6c"/>
      <stop offset="1" stop-color="#644175"/>
    </linearGradient>
  </defs>
  <g class="st10">
    <g id="Layer_1">
      <g class="st16">
        <g>
          <path class="st9" d="M484,136.4s-554-3-736,272h-245.2v-101.9S-98,107.5,484,136.4Z"/>
          <path class="st15" d="M481.2,136.3s-551.1-2.9-733.2,272.1h-149.1S-145,133.3,481.2,136.3Z"/>
          <path class="st7" d="M1946.4,336.4s-150.1,47.7-385.5,29.8c-292.8-22.3-498.7-160.8-847-210,0,0,1021.4,187.3,1232.5,70.2v110Z"/>
          <path class="st4" d="M1946.4,277.9s-308.8,89.6-684.4,3C882.7,193.4,307.8-29.5-497.1,343.5V108.7S-70.9-59.7,786.5,144.3c784.5,186.7,1159.9,6.6,1159.9,6.6v127Z"/>
          <path class="st12" d="M1946.4,257.7s-297.2,80.8-684.4,3C874.7,182.8,253.3-30.8-497.1,326.5v-171.7S-34.9-47.8,786.5,144.3c788,184.3,1159.9,6.6,1159.9,6.6v106.8Z"/>
          <path class="st6" d="M1946.4,135.8v-46.3c-40.9,21.2-371.1,196.6-1085.5,41.3.4,0,.8.2,1.2.3,656.4,153.9,1000.7,39.8,1084.3,4.8Z"/>
          <path class="st5" d="M1458.7,176c276.3,4,434.5-71.8,487.6-102.9V24.2c-69,65.3-228.2,147.2-487.6,151.8Z"/>
          <path class="st14" d="M-497.1,316.2S-137.9,85.7,457.4,114.8c0,0-509.2-50.4-954.6,172.6v28.8Z"/>
          <path class="st1" d="M-497.1,287.1S-128,77.2,457.4,114.8c0,0-510.3-70.8-954.6,110.4v61.9Z"/>
          <path class="st13" d="M1946.4,243.1s-326.2,112.2-752.9,3c0,0,413.7,56.1,752.9-73.1v70.1Z"/>
          <path class="st3" d="M1946.4,257.7s-344.4,93.6-771.1-15.6c0,0,431.9,84.4,771.1-44.8v60.4Z"/>
          <path class="st8" d="M-205.7,408.4S-113.9,167.4,500.3,152.9c0,0-434.1,23.2-535,255.5h-171Z"/>
          <path class="st2" d="M-109.7,408.4S-57.9,197.3,500.3,152.9c0,0-434.1,23.2-535,255.5h-74.9Z"/>
          <path class="st11" d="M-497.1,154.9S-172.9,15.9,409,78.7c0,0-536.9-53.1-906.1,114.8v-38.6Z"/>
        </g>
      </g>
    </g>
  </g>
</svg>