<?xml version="1.0" encoding="UTF-8"?>
<svg xmlns="http://www.w3.org/2000/svg" version="1.1" viewBox="0 0 20 20.9">
  <defs>
    <style>
      .cls-1 {
        fill: #fff;
      }
    </style>
  </defs>
  <!-- Generator: Adobe Illustrator 28.6.0, SVG Export Plug-In . SVG Version: 1.2.0 Build 709)  -->
  <g>
    <g id="Layer_1">
      <path class="cls-1" d="M.3,19.2c-.1.3-.2.4-.2.6,0,.2,0,.4.2.6.2.2.4.2.6.2.2,0,.3,0,.7-.2.3-.2,17.5-8.7,17.5-8.7.3-.1.5-.3.7-.6.2-.3.2-.6.2-.9,0-.3,0-.6-.2-.9-.2-.3-.4-.5-.7-.6C19.1,8.9,1.7.4,1.5.2c-.2-.1-.4-.2-.6-.2-.2,0-.4,0-.6.2C0,.5,0,.7,0,.9c0,.2,0,.3.2.6.2.3,4.3,8.8,4.3,8.8,0,0-4.1,8.6-4.2,8.9Z"/>
    </g>
  </g>
</svg>