<?xml version="1.0" encoding="UTF-8"?>
<svg id="Layer_1" xmlns="http://www.w3.org/2000/svg" version="1.1" viewBox="0 0 2731.7 2759.6">
  <!-- Generator: Adobe Illustrator 30.1.0, SVG Export Plug-In . SVG Version: 2.1.1 Build 136)  -->
  <defs>
    <style>
      .st0 {
        fill: #644979;
      }
    </style>
  </defs>
  <path class="st0" d="M1385.2,0C641.5,0,38.7,602.9,38.7,1346.5s70.2,493.9,194.1,697.7L0,2759.6l732.2-235.3c193.4,107.5,416.1,168.7,653,168.7,743.7,0,1346.5-602.9,1346.5-1346.5S2128.8,0,1385.2,0ZM1391.1,2466.7c-230.7,0-445.2-69.6-623.6-188.8l-428.5,141.6,126.5-439.4c-124.8-181-197.8-400.4-197.8-636.8,0-620.4,502.9-1123.3,1123.3-1123.3s1123.3,502.9,1123.3,1123.3-502.9,1123.3-1123.3,1123.3Z"/>
  <path class="st0" d="M1045.3,786.2l130.2,275.5c10.8,22.9,8.1,49.8-7,70.1l-91.3,122.6c-12,16.1-13,37.8-2.7,54.9,47.6,79.1,198.7,297.5,457.2,383.9,16.7,5.6,35.1.3,46.1-13.4l108.1-133.8c20-24.8,54.6-32.5,83.2-18.5l258.5,126.1c23.5,11.5,38.4,35.3,38.4,61.5v40.4c0,31.8-8.5,63.1-25,90.3-48.7,80.3-176.1,215-459.8,123.9-23.2-7.4-46.5-13.5-69-22.5-129.6-52-528-200-766-739.4-8-18-13.9-36.9-17.5-56.3-13.7-72.5-26.1-240.5,113.8-366.9,26.9-24.3,61.9-37.7,98.2-37.7h42.6c26.5,0,50.6,15.3,61.9,39.2Z"/>
</svg>